<?xml version="1.0" encoding="UTF-8" standalone="no"?>
<!DOCTYPE svg PUBLIC "-//W3C//DTD SVG 1.1//EN" "http://www.w3.org/Graphics/SVG/1.1/DTD/svg11.dtd">
<svg width="100%" height="100%" viewBox="0 0 1540 162" version="1.1" xmlns="http://www.w3.org/2000/svg" xmlns:xlink="http://www.w3.org/1999/xlink" xml:space="preserve" xmlns:serif="http://www.serif.com/" style="fill-rule:evenodd;clip-rule:evenodd;stroke-linejoin:round;stroke-miterlimit:2;">
    <g class="svg-container-class" id="svg-container-id" transform="matrix(1,0,0,1,-230,-919)">
        <g class="name-chars-group-class" id="name-chars-group-id" transform="matrix(1,0,0,1,-130.939,295.591)">
            <g id="letter-c-00-id" transform="matrix(222.201,0,0,222.201,350.467,783.503)">
                <path d="M0.441,-0.199C0.411,-0.134 0.366,-0.102 0.305,-0.102C0.28,-0.102 0.258,-0.107 0.24,-0.118C0.221,-0.127 0.206,-0.139 0.195,-0.154C0.181,-0.169 0.172,-0.189 0.167,-0.214C0.162,-0.239 0.159,-0.286 0.159,-0.356C0.159,-0.426 0.162,-0.474 0.167,-0.499C0.172,-0.523 0.181,-0.543 0.195,-0.558C0.206,-0.573 0.221,-0.585 0.24,-0.595C0.258,-0.604 0.28,-0.609 0.305,-0.61C0.34,-0.609 0.369,-0.599 0.393,-0.58C0.416,-0.56 0.432,-0.535 0.441,-0.507L0.555,-0.507C0.544,-0.566 0.516,-0.616 0.473,-0.657C0.43,-0.697 0.374,-0.717 0.305,-0.718C0.249,-0.717 0.202,-0.704 0.165,-0.678C0.127,-0.652 0.099,-0.623 0.082,-0.59C0.071,-0.573 0.063,-0.55 0.058,-0.522C0.053,-0.494 0.051,-0.439 0.051,-0.356C0.051,-0.275 0.053,-0.22 0.058,-0.191C0.061,-0.176 0.064,-0.163 0.068,-0.153C0.072,-0.143 0.077,-0.133 0.082,-0.122C0.099,-0.089 0.127,-0.06 0.165,-0.035C0.202,-0.009 0.249,0.005 0.305,0.006C0.367,0.006 0.421,-0.012 0.466,-0.047C0.51,-0.082 0.54,-0.133 0.555,-0.199L0.441,-0.199Z" style="fill-rule:nonzero;"/>
            </g>
            <g id="letter-h-00-id" transform="matrix(222.201,0,0,222.201,474.045,783.503)">
                <path d="M0.465,-0L0.573,-0L0.573,-0.712L0.465,-0.712L0.465,-0.407L0.183,-0.407L0.183,-0.712L0.075,-0.712L0.075,-0L0.183,-0L0.183,-0.311L0.465,-0.311L0.465,-0Z" style="fill-rule:nonzero;"/>
            </g>
            <g id="letter-a-00-id" transform="matrix(222.201,0,0,222.201,618.021,783.503)">
                <path d="M0.201,-0.255L0.304,-0.566L0.306,-0.566L0.409,-0.255L0.201,-0.255ZM0.495,-0L0.609,-0L0.35,-0.712L0.26,-0.712L0.001,-0L0.115,-0L0.17,-0.159L0.44,-0.159L0.495,-0Z" style="fill-rule:nonzero;"/>
            </g>
            <g id="letter-d-00-id" transform="matrix(222.201,0,0,222.201,753.533,783.503)">
                <path d="M0.075,-0L0.317,-0C0.37,-0 0.415,-0.012 0.452,-0.035C0.489,-0.057 0.518,-0.085 0.539,-0.118C0.547,-0.131 0.554,-0.143 0.559,-0.155C0.564,-0.167 0.568,-0.181 0.571,-0.196C0.576,-0.226 0.579,-0.279 0.579,-0.356C0.579,-0.428 0.577,-0.479 0.574,-0.508C0.569,-0.537 0.558,-0.565 0.541,-0.592C0.493,-0.671 0.421,-0.711 0.324,-0.712L0.075,-0.712L0.075,-0ZM0.183,-0.61L0.312,-0.61C0.367,-0.611 0.409,-0.591 0.439,-0.55C0.454,-0.533 0.463,-0.512 0.467,-0.485C0.47,-0.458 0.471,-0.414 0.471,-0.352C0.471,-0.289 0.47,-0.245 0.467,-0.222C0.464,-0.199 0.456,-0.179 0.444,-0.164C0.417,-0.123 0.373,-0.102 0.312,-0.102L0.183,-0.102L0.183,-0.61Z" style="fill-rule:nonzero;"/>
            </g>
            <g id="letter-g-00-id" transform="matrix(222.201,0,0,222.201,946.766,783.503)">
                <path d="M0.306,-0.29L0.451,-0.29L0.451,-0.253C0.451,-0.208 0.437,-0.172 0.409,-0.145C0.382,-0.116 0.347,-0.102 0.305,-0.102C0.28,-0.102 0.258,-0.107 0.24,-0.118C0.221,-0.127 0.206,-0.139 0.195,-0.154C0.181,-0.169 0.172,-0.189 0.167,-0.214C0.162,-0.239 0.159,-0.286 0.159,-0.356C0.159,-0.426 0.162,-0.474 0.167,-0.499C0.172,-0.523 0.181,-0.543 0.195,-0.558C0.206,-0.573 0.221,-0.585 0.24,-0.595C0.258,-0.604 0.28,-0.609 0.305,-0.61C0.34,-0.609 0.369,-0.599 0.393,-0.58C0.416,-0.56 0.432,-0.535 0.441,-0.507L0.555,-0.507C0.544,-0.566 0.516,-0.616 0.473,-0.657C0.43,-0.697 0.374,-0.717 0.305,-0.718C0.249,-0.717 0.202,-0.704 0.165,-0.678C0.127,-0.652 0.099,-0.623 0.082,-0.59C0.071,-0.573 0.063,-0.55 0.058,-0.522C0.053,-0.494 0.051,-0.439 0.051,-0.356C0.051,-0.275 0.053,-0.22 0.058,-0.191C0.061,-0.176 0.064,-0.163 0.068,-0.153C0.072,-0.143 0.077,-0.133 0.082,-0.122C0.099,-0.089 0.127,-0.06 0.165,-0.035C0.202,-0.009 0.249,0.005 0.305,0.006C0.378,0.005 0.438,-0.02 0.486,-0.068C0.533,-0.116 0.558,-0.176 0.559,-0.247L0.559,-0.392L0.306,-0.392L0.306,-0.29Z" style="fill-rule:nonzero;"/>
            </g>
            <g id="letter-r-00-id" transform="matrix(222.201,0,0,222.201,1082.28,783.503)">
                <path d="M0.183,-0.616L0.352,-0.616C0.387,-0.616 0.413,-0.608 0.431,-0.594C0.454,-0.577 0.466,-0.55 0.467,-0.513C0.467,-0.482 0.457,-0.456 0.437,-0.435C0.417,-0.412 0.387,-0.401 0.346,-0.4L0.183,-0.4L0.183,-0.616ZM0.075,-0L0.183,-0L0.183,-0.304L0.321,-0.304L0.468,-0L0.596,-0L0.431,-0.316C0.522,-0.351 0.568,-0.417 0.569,-0.513C0.567,-0.579 0.543,-0.63 0.498,-0.665C0.461,-0.696 0.412,-0.712 0.353,-0.712L0.075,-0.712L0.075,-0Z" style="fill-rule:nonzero;"/>
            </g>
            <g id="letter-e-00-id" transform="matrix(222.201,0,0,222.201,1217.79,783.503)">
                <path d="M0.075,-0L0.53,-0L0.53,-0.102L0.183,-0.102L0.183,-0.311L0.479,-0.311L0.479,-0.407L0.183,-0.407L0.183,-0.61L0.53,-0.61L0.53,-0.712L0.075,-0.712L0.075,-0Z" style="fill-rule:nonzero;"/>
            </g>
            <g id="letter-s-00-id" transform="matrix(222.201,0,0,222.201,1341.37,783.503)">
                <path d="M0.084,-0.173L0.013,-0.092C0.089,-0.027 0.18,0.006 0.285,0.006C0.448,0.004 0.532,-0.065 0.535,-0.201C0.535,-0.252 0.519,-0.296 0.488,-0.334C0.456,-0.373 0.407,-0.397 0.34,-0.406C0.306,-0.41 0.279,-0.414 0.26,-0.417C0.225,-0.424 0.199,-0.435 0.183,-0.452C0.167,-0.469 0.159,-0.487 0.159,-0.508C0.16,-0.542 0.172,-0.568 0.195,-0.585C0.217,-0.602 0.245,-0.61 0.278,-0.61C0.342,-0.609 0.401,-0.59 0.454,-0.555L0.514,-0.644C0.449,-0.691 0.372,-0.716 0.283,-0.718C0.21,-0.717 0.153,-0.698 0.113,-0.66C0.071,-0.622 0.051,-0.572 0.051,-0.51C0.051,-0.458 0.067,-0.414 0.1,-0.378C0.132,-0.343 0.179,-0.32 0.24,-0.31C0.274,-0.305 0.305,-0.301 0.334,-0.297C0.396,-0.286 0.427,-0.254 0.427,-0.201C0.425,-0.136 0.379,-0.103 0.286,-0.102C0.208,-0.103 0.141,-0.126 0.084,-0.173Z" style="fill-rule:nonzero;"/>
            </g>
            <g id="letter-h-01-id" transform="matrix(222.201,0,0,222.201,1468.85,783.503)">
                <path d="M0.465,-0L0.573,-0L0.573,-0.712L0.465,-0.712L0.465,-0.407L0.183,-0.407L0.183,-0.712L0.075,-0.712L0.075,-0L0.183,-0L0.183,-0.311L0.465,-0.311L0.465,-0Z" style="fill-rule:nonzero;"/>
            </g>
            <g id="letter-a-01-id" transform="matrix(222.201,0,0,222.201,1612.83,783.503)">
                <path d="M0.201,-0.255L0.304,-0.566L0.306,-0.566L0.409,-0.255L0.201,-0.255ZM0.495,-0L0.609,-0L0.35,-0.712L0.26,-0.712L0.001,-0L0.115,-0L0.17,-0.159L0.44,-0.159L0.495,-0Z" style="fill-rule:nonzero;"/>
            </g>
            <g id="letter-m-00-id" transform="matrix(222.201,0,0,222.201,1748.34,783.503)">
                <path d="M0.075,-0L0.183,-0L0.183,-0.444L0.185,-0.444L0.334,-0.102L0.424,-0.102L0.573,-0.444L0.575,-0.444L0.575,-0L0.683,-0L0.683,-0.712L0.581,-0.712L0.381,-0.248L0.177,-0.712L0.075,-0.712L0.075,-0Z" style="fill-rule:nonzero;"/>
            </g>
        </g>
        <animate xlink:href="#name-chars-group-id" attributeName="trsnsform" from="matrix(1,0,0,1,0,0)" to="matrix(1,0,0,1,-130.939,295.591)" dur="6.8s" begin="0s" repeatCount="indefinite"/>
        <defs>
            <style xmlns="http://www.w3.org/2000/svg" type="text/css">
                #name-chars-group-id {
                    width: 0;
                    animation: typing-animation-00 4s steps(40) 1s 1 normal both;
                    animation-delay: 0s;
                    animation-iteration-count: infinite;

                    -webkit-animation: typing-animation-00 4s steps(40) 1s 1 normal both;
                    -webkit-animation-delay: 0s;
                    -webkit-animation-iteration-count: infinite;
            
                    -moz-animation: typing-animation-00 4s steps(40) 1s 1 normal both;
                    -moz-animation-delay: 0s;
                    -moz-animation-iteration-count: infinite;
            
                    -o-animation: typing-animation-00 4s steps(40) 1s 1 normal both;
                    -o-animation-delay: 0s;
                    -o-animation-iteration-count: infinite;
            
                    -ms-animation: typing-animation-00 4s steps(40) 1s 1 normal both;
                    -ms-animation-delay: 0s;
                    -ms-animation-iteration-count: infinite;
                }

                @keyframes typing-animation-00 {
                    from { width: 0%; }
                    to { width: 100% }           
                }  
                @-webkit-keyframes typing-animation-00{
                    from { width: 0%; }
                    to { width: 100% }         
                }
                @-moz-keyframes typing-animation-00 {
                    from { width: 0%; }
                    to { width: 100% }   
                }
                @-o-keyframes typing-animation-00 {
                    from { width: 0%; }
                    to { width: 100% }      
                }
                @-ms-keyframes typing-animation-00 {
                    from { width: 0%; }
                    to { width: 100% }      
                }
            </style> 
        </defs>
    </g>
</svg>